<svg viewBox="0 0 36 36" fill="none" xmlns="http://www.w3.org/2000/svg">
  <rect width="36" height="36" rx="10" fill="url(#vb-pro-bg)"/>
  <path d="M9.5 11.5 C9.5 10.67 10.17 10 11 10 H15.2 C15.7 10 16.18 10.25 16.48 10.68 L18 12.8 L19.52 10.68 C19.82 10.25 20.3 10 20.8 10 H25 C25.83 10 26.5 10.67 26.5 11.5 C26.5 11.95 26.3 12.38 25.95 12.68 L19.45 25.18 C18.88 26.28 17.12 26.28 16.55 25.18 L10.05 12.68 C9.7 12.38 9.5 11.95 9.5 11.5 Z" fill="url(#vb-v-grad)"/>
  <path d="M18 14.5 L22.2 11.8 L18 20 L13.8 11.8 L18 14.5 Z" fill="#FFFFFF" fill-opacity="0.92"/>
  <path d="M18 7 L20.8 10 L18 13 L15.2 10 L18 7 Z" fill="url(#vb-diamond-grad)"/>
  <defs>
    <linearGradient id="vb-pro-bg" x1="0" y1="0" x2="36" y2="36" gradientUnits="userSpaceOnUse">
      <stop stop-color="#0F172A"/>
      <stop offset="0.5" stop-color="#1E1E2E"/>
      <stop offset="1" stop-color="#311042"/>
    </linearGradient>
    <linearGradient id="vb-v-grad" x1="9" y1="10" x2="27" y2="26" gradientUnits="userSpaceOnUse">
      <stop stop-color="#818CF8"/>
      <stop offset="0.6" stop-color="#C084FC"/>
      <stop offset="1" stop-color="#E879F9"/>
    </linearGradient>
    <linearGradient id="vb-diamond-grad" x1="15" y1="7" x2="21" y2="13" gradientUnits="userSpaceOnUse">
      <stop stop-color="#38BDF8"/>
      <stop offset="1" stop-color="#818CF8"/>
    </linearGradient>
  </defs>
</svg>
